HIERARCHY
ROOT Hips
{
	OFFSET	0.00	0.00	0.00
	CHANNELS 6 Xposition Yposition Zposition Zrotation Xrotation Yrotation
	JOINT LeftUpLeg
	{
		OFFSET	 0.126116	-0.065224	 0.014019
		CHANNELS 3 Zrotation Xrotation Yrotation
		JOINT LeftLeg
		{
			OFFSET	 0.000000	 0.569914	 0.000000
			CHANNELS 3 Zrotation Xrotation Yrotation
			JOINT LeftFoot
			{
				OFFSET	 0.000000	 0.544423	 0.000000
				CHANNELS 3 Zrotation Xrotation Yrotation
				JOINT LeftToeBase
				{
					OFFSET	 0.000000	 0.207117	 0.000000
					CHANNELS 3 Zrotation Xrotation Yrotation
					End Site
					{
						OFFSET	 0.000000	 0.207117	 0.000000
					}
				}
			}
		}
	}
	JOINT RightUpLeg
	{
		OFFSET	-0.124023	-0.065224	 0.008373
		CHANNELS 3 Zrotation Xrotation Yrotation
		JOINT RightLeg
		{
			OFFSET	 0.000000	 0.570047	 0.000000
			CHANNELS 3 Zrotation Xrotation Yrotation
			JOINT RightFoot
			{
				OFFSET	 0.000000	 0.544354	 0.000000
				CHANNELS 3 Zrotation Xrotation Yrotation
				JOINT RightToeBase
				{
					OFFSET	 0.000000	 0.207540	 0.000000
					CHANNELS 3 Zrotation Xrotation Yrotation
					End Site
					{
						OFFSET	 0.000000	 0.207540	 0.000000
					}
				}
			}
		}
	}
	JOINT Spine
	{
		OFFSET	 0.000184	 0.117403	 0.007763
		CHANNELS 3 Zrotation Xrotation Yrotation
		JOINT Spine1
		{
			OFFSET	 0.000000	 0.137269	 0.000000
			CHANNELS 3 Zrotation Xrotation Yrotation
			JOINT Spine2
			{
				OFFSET	 0.000000	 0.156879	 0.000000
				CHANNELS 3 Zrotation Xrotation Yrotation
				JOINT LeftShoulder
				{
					OFFSET	 0.080501	 0.160143	 0.002496
					CHANNELS 3 Zrotation Xrotation Yrotation
					JOINT LeftArm
					{
						OFFSET	 0.000000	 0.164363	 0.000000
						CHANNELS 3 Zrotation Xrotation Yrotation
						JOINT LeftForeArm
						{
							OFFSET	 0.000000	 0.364576	 0.000000
							CHANNELS 3 Zrotation Xrotation Yrotation
							JOINT LeftHand
							{
								OFFSET	 0.000000	 0.360812	 0.000000
								CHANNELS 3 Zrotation Xrotation Yrotation
								JOINT LeftHandIndex1
								{
									OFFSET	 0.000000	 0.086006	 0.000000
									CHANNELS 3 Zrotation Xrotation Yrotation
									JOINT LeftHandIndex2
									{
										OFFSET	 0.000000	 0.047237	 0.000000
										CHANNELS 3 Zrotation Xrotation Yrotation
										JOINT LeftHandIndex3
										{
											OFFSET	-0.004284	 0.038165	 0.000551
											CHANNELS 3 Zrotation Xrotation Yrotation
											End Site
											{
												OFFSET	-0.004284	 0.038165	 0.000551
											}
										}
									}
								}
							}
						}
					}
				}
				JOINT Neck
				{
					OFFSET	 0.000000	 0.176489	 0.000000
					CHANNELS 3 Zrotation Xrotation Yrotation
					JOINT Head
					{
						OFFSET	 0.000000	 0.077941	 0.001747
						CHANNELS 3 Zrotation Xrotation Yrotation
						End Site
						{
							OFFSET	 0.000000	 0.077941	 0.001747
						}
					}
				}
				JOINT RightShoulder
				{
					OFFSET	-0.080363	 0.159706	-0.000306
					CHANNELS 3 Zrotation Xrotation Yrotation
					JOINT RightArm
					{
						OFFSET	 0.000000	 0.164196	 0.000000
						CHANNELS 3 Zrotation Xrotation Yrotation
						JOINT RightForeArm
						{
							OFFSET	 0.000000	 0.365611	 0.000000
							CHANNELS 3 Zrotation Xrotation Yrotation
							JOINT RightHand
							{
								OFFSET	 0.000000	 0.360648	 0.000000
								CHANNELS 3 Zrotation Xrotation Yrotation
								JOINT RightHandIndex1
								{
									OFFSET	 0.000000	 0.069977	 0.000000
									CHANNELS 3 Zrotation Xrotation Yrotation
									JOINT RightHandIndex2
									{
										OFFSET	 0.000000	 0.052305	 0.000000
										CHANNELS 3 Zrotation Xrotation Yrotation
										JOINT RightHandIndex3
										{
											OFFSET	 0.009002	 0.042196	 0.000782
											CHANNELS 3 Zrotation Xrotation Yrotation
											End Site
											{
												OFFSET	 0.009002	 0.042196	 0.000782
											}
										}
									}
								}
							}
						}
					}
				}
			}
		}
	}
}
MOTION
Frames:    9
Frame Time: 0.03333334
-0.046047	 1.234504	-1.246533	-3.202273	 1.411591	-174.175600	 175.293500	 8.120108	-16.738100	 4.379792	-29.948630	 6.105324	 8.019846	 80.836490	-0.606008	 1.512287	 31.240310	-2.811662	 167.366500	 27.153280	 21.008700	-5.780629	-53.256510	 6.321330	 3.959347	 69.985030	-3.284621	-1.668530	 33.137300	 2.886185	-1.440422	 8.617994	-2.763788	 0.402199	 3.554769	-0.786601	-0.236706	-3.940328	-0.749575	-121.358900	 7.423546	 94.035510	 53.151300	 12.805500	-23.284780	 4.093431	-0.211609	-0.076377	-15.315630	 13.141900	 4.314128	 4.624177	 18.856530	-1.654968	-5.863953	 21.470840	 2.373669	 5.331528	 4.340008	-0.169039	-0.168371	-5.009586	-0.144698	-2.107851	-2.034301	-3.139565	 118.423900	-0.013285	-90.826360	-3.208807	 48.351000	-2.918372	-4.939267	-0.194098	 0.050204	-4.728097	 7.879087	-11.852630	-2.438165	 25.992480	 1.336381	 15.855080	 44.981340	-11.843920	-8.529009	 23.990480	-1.227679
-0.045850	 1.234739	-1.255463	-3.248763	 1.233500	-174.011900	 175.431000	 7.901866	-17.194390	 4.407966	-30.107500	 6.278179	 9.077701	 81.046130	-1.739313	 1.523502	 31.379720	-2.816947	 166.586800	 28.220040	 22.412890	-5.835596	-53.265250	 6.400881	 4.825242	 71.627490	-3.981397	-1.673422	 33.195760	 2.888633	-1.233677	 8.534094	-4.268532	 0.369350	 3.547926	-0.833640	-0.227610	-3.968979	-0.753344	-121.355200	 7.563073	 94.104800	 52.519440	 12.268990	-22.578610	 4.664340	-0.211869	-0.695636	-13.255580	 11.687700	 2.898892	 4.642202	 18.915650	-1.664583	-5.863794	 21.522780	 2.379402	 5.333759	 4.392251	-0.168090	-0.170924	-5.021451	-0.132961	-2.064665	-2.094717	-3.145763	 118.404500	-0.095590	-90.787730	-2.513808	 48.078320	-3.218844	-5.534881	-0.195170	 0.669605	-4.561160	 6.986754	-11.465750	-2.372821	 25.506380	 1.301441	 15.732550	 44.507030	-11.655030	-8.530807	 23.502520	-1.195176
-0.045406	 1.233686	-1.276494	-3.328861	 0.915839	-173.724800	 175.590000	 7.199581	-17.514000	 4.438559	-30.279420	 6.575728	 11.168780	 81.733780	-4.100235	 1.543474	 31.627010	-2.826419	 165.308400	 30.714800	 24.370140	-5.713500	-52.936190	 6.800224	 6.299429	 73.856240	-5.331149	-1.682115	 33.299470	 2.892995	-0.879900	 8.372871	-6.952221	 0.334717	 3.614949	-0.837129	-0.228571	-4.056484	-0.863290	-121.349200	 7.810594	 94.227730	 51.109980	 11.155500	-21.240880	 5.665935	-0.211814	-1.793319	-9.429375	 9.264125	 0.280311	 4.674215	 19.020520	-1.681695	-5.863526	 21.614910	 2.389575	 5.337714	 4.484919	-0.166411	-0.175447	-5.042498	-0.112143	-1.988055	-2.201879	-3.156644	 118.370300	-0.241598	-90.719290	-0.832631	 47.549460	-4.103034	-6.595833	-0.197243	 1.767217	-4.655989	 5.428504	-10.811160	-2.258318	 24.643800	 1.241288	 15.522870	 43.664780	-11.327030	-8.533242	 22.636720	-1.137835
-0.043358	 1.226022	-1.369213	-3.557725	-0.089662	-172.840400	 176.033900	 2.869022	-17.565310	 4.251570	-29.219160	 7.369153	 21.351050	 84.444870	-15.793710	 1.606496	 32.399100	-2.856820	 162.180600	 38.613500	 29.440340	-4.363043	-45.334220	 8.911706	 8.272403	 75.128220	-8.532613	-1.709384	 33.623290	 2.906769	 0.101270	 7.773438	-15.308370	 0.360205	 4.164492	-1.184992	-0.272610	-4.489918	-1.003346	-121.333800	 8.583515	 94.611920	 45.548450	 6.852863	-17.233380	 8.728191	-0.208892	-5.192702	 2.754763	 2.089575	-8.576365	 4.774513	 19.347860	-1.735592	-5.862802	 21.902560	 2.421378	 5.350049	 4.774251	-0.161210	-0.189518	-5.108222	-0.047150	-1.748789	-2.536669	-3.189718	 118.264500	-0.697723	-90.506110	 6.266370	 45.044490	-8.293504	-9.875355	-0.202979	 5.165942	-6.965630	 1.351030	-8.889907	-1.911605	 21.948650	 1.067809	 14.926730	 41.028570	-10.356390	-8.534825	 19.932190	-0.961094
-0.041080	 1.217699	-1.454342	-3.734507	-0.977029	-172.064500	 176.368600	-1.844400	-17.155190	 3.804244	-26.590830	 7.946218	 36.530610	 85.859770	-32.552010	 1.662729	 33.077520	-2.884588	 162.944800	 39.904890	 30.825140	-2.354594	-28.651030	 11.630670	 11.012260	 72.579330	-12.962550	-1.733508	 33.907820	 2.919068	 0.784049	 7.162519	-22.352310	 0.422658	 4.495369	-1.420641	-0.338420	-4.799418	-1.250093	-121.324600	 9.262752	 94.950000	 41.310390	 3.551476	-14.908450	 11.365460	-0.206519	-8.110080	 11.860190	-5.162807	-16.213120	 4.863082	 19.635430	-1.783545	-5.862306	 22.155320	 2.449374	 5.360871	 5.028488	-0.156689	-0.201822	-5.165988	 0.009952	-1.538437	-2.830909	-3.217643	 118.172900	-1.098853	-90.319480	 11.683740	 42.558330	-11.342210	-12.639630	-0.205414	 8.082452	-8.993452	-1.519656	-7.433230	-1.619197	 19.579870	 0.932212	 14.468870	 38.706650	-9.562930	-8.528976	 17.555910	-0.808197
-0.037035	 1.207504	-1.533253	-3.577443	-1.242701	-171.523100	 177.344700	-5.934756	-16.771600	 3.650307	-25.656720	 7.440639	 27.101470	 86.466370	-24.703740	 1.985755	 36.784140	-3.055190	 167.170800	 35.742630	 28.396850	-0.798510	-10.499910	 12.402110	 5.956001	 65.339680	-10.650590	-1.767810	 34.309280	 2.936738	 1.621741	 6.725050	-28.641350	 0.540682	 4.625495	-1.690998	-0.363765	-4.899702	-1.370002	-121.268200	 9.558190	 95.091620	 39.160250	 1.260361	-14.820890	 13.744620	-0.206454	-10.691250	 15.432390	-10.840200	-21.637510	 5.002167	 19.864620	-1.846048	-5.861851	 22.493390	 2.486896	 5.378246	 5.437428	-0.149527	-0.198344	-5.192226	 0.044839	-1.424047	-2.874041	-3.018297	 118.256800	-1.368662	-90.197660	 14.059760	 40.828190	-12.012060	-15.046700	-0.205692	 10.663270	-10.052010	-4.837246	-6.934973	-1.474597	 17.138650	 0.871875	 14.063210	 36.369050	-8.813427	-8.516690	 15.189160	-0.657505
-0.023275	 1.182470	-1.702746	-2.470649	-0.623313	-170.373400	-178.832500	-14.026690	-15.323830	 3.901119	-27.170970	 4.482481	-22.975140	 80.841250	 21.403710	 3.843953	 52.592390	-4.124613	 168.208000	 39.739410	 26.956460	-1.925004	-23.693940	 9.777325	-2.284986	 68.711820	-3.312190	-1.851779	 35.276610	 2.980880	 3.884175	 5.602241	-41.365420	 0.867752	 3.963830	-2.356328	-0.303878	-4.433761	-1.410021	-121.060400	 9.513721	 95.047620	 38.549450	-2.334576	-17.437770	 18.800660	-0.210818	-16.047950	 13.637140	-17.947700	-29.823150	 5.365215	 20.334430	-2.003748	-5.861906	 23.490210	 2.598076	 5.433702	 6.748624	-0.127381	-0.158925	-5.193429	 0.083689	-1.388687	-2.386218	-2.169382	 118.811600	-1.846364	-89.988170	 13.364190	 39.396210	-8.863552	-19.999680	-0.203489	 16.021550	-9.737577	-12.317800	-7.808926	-1.415895	 11.340700	 0.860807	 13.298990	 30.922220	-7.221440	-8.464889	 9.744854	-0.313868
-0.013072	 1.184566	-1.815217	-0.990231	 0.599860	-168.395100	-174.346400	-16.999920	-14.293950	 4.572287	-31.023700	 3.038614	-23.030040	 61.828750	 19.590300	 8.068288	 70.201820	-6.703923	 171.131300	 35.298480	 25.443880	-2.188458	-26.923380	 10.971090	-10.870160	 59.596670	-1.403477	-1.808820	 34.784450	 2.958141	 5.527841	 4.335463	-47.179030	 1.012418	 2.921513	-2.731910	-0.076717	-3.568840	-1.598248	-121.020200	 9.043009	 94.808490	 39.341470	-3.080314	-16.217720	 21.530470	-0.213280	-18.923180	 8.699701	-14.255390	-32.618300	 5.260193	 20.719720	-1.992900	-5.863391	 24.255780	 2.684043	 5.478622	 7.817070	-0.110225	-0.117211	-5.158446	 0.073536	-1.732519	-1.306049	-1.802753	 119.386300	-2.434769	-89.721590	 12.556490	 39.240940	-7.546504	-22.602470	-0.199672	 18.899220	-10.016880	-14.635950	-4.546494	-1.590822	 9.011823	 0.924618	 13.064880	 28.847650	-6.661059	-8.438445	 7.789237	-0.190508
-0.007251	 1.200340	-1.937952	-0.143837	 1.783941	-170.485100	-171.137800	-7.389796	-19.102500	 8.656816	-48.632380	 8.624941	-23.348020	 64.493750	 19.795250	 4.582988	 57.276330	-4.028931	 173.923000	 31.711950	 24.383530	-2.845680	-33.434570	 6.982251	-18.015410	 64.125430	 8.132414	-1.676608	 33.233790	 2.890231	 6.458894	 4.344756	-47.401480	 0.976000	 2.705664	-2.340443	-0.062971	-3.282817	-1.358483	-120.696300	 8.432425	 94.477100	 41.748690	 2.378197	-16.956040	 24.746120	-0.221923	-22.160250	 0.924065	-11.328760	-28.055310	 5.133640	 22.013320	-2.035482	-5.868181	 25.434160	 2.817441	 5.544243	 9.386355	-0.086484	-0.039426	-5.051297	-0.035319	-1.756259	-1.221597	-2.218601	 119.641800	-1.777653	-90.035890	 6.950607	 41.896340	-4.389943	-25.755610	-0.202833	 22.138970	-11.482420	-18.903340	 4.910396	-1.902398	 12.128690	 1.070690	 13.411370	 31.835690	-7.475451	-8.469382	 10.110590	-0.336907
